<svg xmlns="http://www.w3.org/2000/svg" width="505.141" height="574.808" viewBox="0 0 378.856 431.106"><path d="m370.966 300.915-44.469-25.29 30.734-21.12c7.106-4.879 8.902-14.586 4.027-21.691-4.879-7.106-14.586-8.902-21.69-4.027l-43.146 29.695-75.438-42.906 75.395-42.906 43.145 29.695c7.106 4.878 16.812 3.078 21.691-4.028 4.88-7.105 3.078-16.812-4.027-21.69l-30.734-21.122 44.469-25.289c7.484-4.261 10.086-13.78 5.824-21.266-4.261-7.484-13.78-10.086-21.266-5.824l-44.469 25.29-2.46-37.224c-.567-8.621-8.005-15.105-16.622-14.539-8.62.567-15.105 8.004-14.539 16.621l3.504 52.285-75.914 43.191-.004-87.375 47.168-22.828c7.766-3.742 10.988-13.07 7.246-20.836-3.742-7.766-13.07-10.988-20.836-7.246l-33.578 16.242V15.582c0-8.621-6.96-15.582-15.582-15.582a15.562 15.562 0 0 0-15.582 15.582V66.73l-33.578-16.242c-7.765-3.742-17.098-.52-20.836 7.246-3.742 7.766-.52 17.098 7.246 20.836l47.168 22.828v87.328L97.9 145.536l3.504-52.286c.567-8.621-5.918-16.008-14.539-16.62-8.62-.567-16.008 5.917-16.62 14.538l-2.462 37.223-44.469-25.289c-7.484-4.262-17-1.656-21.266 5.824-4.261 7.485-1.656 17 5.825 21.266l44.469 25.29-30.734 21.12c-7.106 4.88-8.903 14.586-4.028 21.691 4.88 7.106 14.586 8.903 21.691 4.028l43.145-29.695 75.488 42.949-75.395 42.906-43.145-29.695c-7.105-4.88-16.812-3.079-21.69 4.027-4.88 7.105-3.079 16.812 4.027 21.69l30.734 21.122-44.47 25.289C.48 305.176-2.12 314.694 2.14 322.18c4.262 7.485 13.781 10.086 21.266 5.824l44.47-25.289 2.46 37.223c.14 2.414.852 4.688 1.989 6.676 2.89 5.02 8.43 8.289 14.586 7.863 8.62-.566 15.105-8.004 14.539-16.62l-3.504-52.286 75.914-43.19v87.327l-47.168 22.828c-7.766 3.742-10.988 13.07-7.246 20.836 3.742 7.766 13.07 10.988 20.836 7.246l33.578-16.242v51.148c0 8.621 6.96 15.582 15.582 15.582 8.62 0 15.582-6.96 15.582-15.582v-51.148l33.578 16.242a15.717 15.717 0 0 0 6.773 1.563c5.777 0 11.367-3.219 14.066-8.809 3.742-7.765.52-17.098-7.246-20.836l-47.168-22.828-.004-87.328 75.914 43.191-3.504 52.285c-.566 8.621 5.918 16.008 14.539 16.621 6.156.426 11.746-2.84 14.586-7.863a15.227 15.227 0 0 0 1.988-6.676l2.461-37.223 44.47 25.29c7.484 4.26 17 1.655 21.265-5.825 4.36-7.485 1.754-17.004-5.777-21.266z"/></svg>