<svg xmlns="http://www.w3.org/2000/svg" width="800" height="714.29" viewBox="0 0 800 714.29" xmlns:xlink="http://www.w3.org/1999/xlink" role="img" artist="Katerina Limpitsouni" source="https://undraw.co/"><g transform="translate(-595.509 -198.287)"><path d="M699.66,762.576l-381.681.336c-1.047,0-1.9-.583-1.9-1.3s.849-1.3,1.9-1.3l381.681-.336c1.047,0,1.9.583,1.9,1.3S700.707,762.576,699.66,762.576Z" transform="translate(279.426 145.839)" fill="#e6e6e6"/><path d="M25.134,0H0V49.451l27.629-4.56Z" transform="translate(681.164 814.808) rotate(21)" fill="#9f616a"/><path d="M13.074,43.456H67.466a31.373,31.373,0,0,0,13.511-3.079L91,35.558a6.022,6.022,0,0,0-1-11.231L69.314,18.6,33.924,0,33.9.134c-.662,3.352-1.687,8.416-1.818,8.723-3.629,4.158-7.357,6.074-11.081,5.7-6.5-.659-10.813-8.159-10.856-8.235l-.033-.058-.066.007A4.308,4.308,0,0,0,6.7,8.091c-1.482,2.234-.578,5.675-.429,6.194C4.5,16.021,3.7,25.717,3.638,26.5,1.072,29.219-.147,31.833.014,34.27c.141,2.13,1.323,4.109,3.511,5.881a15.19,15.19,0,0,0,9.548,3.306Z" transform="translate(663.429 838.171) rotate(21)" fill="#090814"/><path d="M899.271,608.937h-352.4A32.073,32.073,0,0,1,514.834,576.9V238.429a32.073,32.073,0,0,1,32.036-32.036h352.4a32.073,32.073,0,0,1,32.036,32.036V576.9A32.073,32.073,0,0,1,899.271,608.937Z" transform="translate(464.201 56.654)" fill="#fff"/><path d="M899.271,608.937h-352.4A32.073,32.073,0,0,1,514.834,576.9V238.429a32.073,32.073,0,0,1,32.036-32.036h352.4a32.073,32.073,0,0,1,32.036,32.036V576.9A32.073,32.073,0,0,1,899.271,608.937Zm-352.4-399.759a29.284,29.284,0,0,0-29.251,29.251V576.9a29.284,29.284,0,0,0,29.251,29.251h352.4A29.284,29.284,0,0,0,928.522,576.9V238.429a29.283,29.283,0,0,0-29.251-29.251Z" transform="translate(464.201 56.654)" fill="#3f3d56"/><path d="M679.337,298.118H620.144a5.653,5.653,0,1,1,0-11.305h59.193a5.653,5.653,0,1,1,0,11.305Z" transform="translate(503.356 88.25)" fill="#8bb7f9"/><path d="M774.338,459.118H715.144a5.653,5.653,0,0,1,0-11.305h59.193a5.653,5.653,0,1,1,0,11.305Z" transform="translate(540.68 151.506)" fill="#8bb7f9"/><path d="M812.029,314.717H620.144a5.653,5.653,0,0,1,0-11.305H812.029a5.653,5.653,0,0,1,0,11.305Z" transform="translate(503.356 94.771)" fill="#e6e6e6"/><circle cx="17.065" cy="17.065" r="17.065" transform="translate(1057.687 373.729)" fill="#8bb7f9"/><circle cx="17.065" cy="17.065" r="17.065" transform="translate(1000.58 287.371)" fill="#f2f2f2"/><path d="M583.73,309.5a1.9,1.9,0,0,1-1.519-.76l-4.656-6.207a1.9,1.9,0,0,1,3.037-2.278l3.046,4.061,7.823-11.734a1.9,1.9,0,0,1,3.167,2.095l-.008.011-9.311,13.967a1.9,1.9,0,0,1-1.527.845Z" transform="translate(488.695 90.182)" fill="#fff"/><path d="M812.029,358.717H620.144a5.653,5.653,0,0,1,0-11.305H812.029a5.653,5.653,0,0,1,0,11.305Z" transform="translate(503.356 112.06)" fill="#e6e6e6"/><path d="M588.759,374.771a18.458,18.458,0,1,1,18.458-18.458A18.458,18.458,0,0,1,588.759,374.771Zm0-34.13a15.672,15.672,0,1,0,15.672,15.672A15.672,15.672,0,0,0,588.759,340.642Z" transform="translate(485.994 108.304)" fill="#e6e6e6"/><path d="M679.337,404.118H620.144a5.653,5.653,0,1,1,0-11.305h59.193a5.653,5.653,0,1,1,0,11.305Z" transform="translate(503.356 129.898)" fill="#e6e6e6"/><path d="M812.029,420.716H620.144a5.653,5.653,0,1,1,0-11.305H812.029a5.653,5.653,0,0,1,0,11.305Z" transform="translate(503.356 136.418)" fill="#e6e6e6"/><path d="M588.759,427.772a18.459,18.459,0,1,1,18.458-18.458A18.459,18.459,0,0,1,588.759,427.772Zm0-34.131a15.673,15.673,0,1,0,15.672,15.673,15.673,15.673,0,0,0-15.672-15.673Z" transform="translate(485.994 129.127)" fill="#e6e6e6"/><path d="M552.782,237.057h-12.55l4.761-4.867a1.177,1.177,0,0,0-1.683-1.646l-6.717,6.866a1.177,1.177,0,0,0,0,1.646l6.717,6.867a1.177,1.177,0,0,0,1.683-1.646l-4.76-4.866h12.548a1.177,1.177,0,0,0,0-2.354Z" transform="translate(472.618 66.004)" fill="#3f3d56"/><path d="M24.034,0H-1.1V49.451l27.629-4.56Z" transform="translate(829.254 831.683)" fill="#9f616a"/><path d="M262.71,211.537l10.94,124.193L170.01,337.45l9.978-123.534Z" transform="translate(618.235 66.74)" fill="#090814"/><path d="M299.813,318.832s45.048,19.316,90.031,9.8c0,0,15.679,73.784,6.485,197.656s-13.853,155.377-13.853,155.377-2.459,13.445-47.529-8.031v-113.2l-4.392-126.926-99.83,240.13s-30.368-.33-44.85-14.087l34.181-133.26s47.661-134.1,48.557-135.215l31.2-72.242Z" transform="translate(480.601 168.729)" fill="#090814"/><path d="M182.27,309.966,105.65,342.794l18.951,21.12,65.934-35.944a20.794,20.794,0,0,0,16.054-.83c9.612-4.413,14.444-14.439,10.792-22.394s-14.4-10.827-24.017-6.414A20.8,20.8,0,0,0,182.27,309.966Z" transform="translate(798.821 147.275)" fill="#9f616a"/><path d="M176.194,242.433a38.7,38.7,0,1,1,50.3,36.935l-7.482,49.448L180.869,297.03s8.24-10.5,12.659-22.33a38.662,38.662,0,0,1-17.334-32.266Z" transform="translate(626.219 59.318)" fill="#9f616a"/><path d="M207.69,248.471s14.624,30.174,35.5,4.189l33.443,5.578s3.154,117.681-9.65,135.71c0,0-50.586,27.269-92.227-8.235l7.284-130.031Z" transform="translate(605.663 101.847)" fill="#8bb7f9"/><g transform="translate(781.832 494.65)"><path d="M391.772,604.117l-79.637-36.673a11.154,11.154,0,0,1-5.46-14.78l13.373-29.039a11.154,11.154,0,0,1,14.78-5.459l79.637,36.673a11.154,11.154,0,0,1,5.46,14.78l-13.373,29.039a11.154,11.154,0,0,1-14.78,5.459Z" transform="translate(-304.561 -516.052)" fill="#fff"/><path d="M391.409,605.205l-79.637-36.673a12.249,12.249,0,0,1-6-16.232l13.372-29.038a12.249,12.249,0,0,1,16.232-6l79.637,36.673a12.249,12.249,0,0,1,6,16.231L407.64,599.209a12.249,12.249,0,0,1-16.231,6Zm-56.944-85.951a10.058,10.058,0,0,0-13.328,4.923l-13.372,29.039a10.058,10.058,0,0,0,4.923,13.328l79.637,36.673a10.058,10.058,0,0,0,13.328-4.924l13.372-29.038a10.058,10.058,0,0,0-4.923-13.328Z" transform="translate(-304.655 -516.146)" fill="#3f3d56"/><path d="M363.449,556.569l-.44-.2a1.938,1.938,0,1,1,1.621-3.52l.44.2a1.938,1.938,0,1,1-1.621,3.52Z" transform="translate(-299.261 -512.703)" fill="#ccc"/><path d="M382.733,576.171l-24.2-11.144a1.938,1.938,0,1,1,1.621-3.52l24.2,11.144a1.938,1.938,0,1,1-1.621,3.52Z" transform="translate(-299.683 -511.887)" fill="#ccc"/><circle cx="12.991" cy="12.991" r="12.991" transform="translate(28.438 24.128)" fill="#8bb7f9"/></g><path d="M134.282,257.984l12.4-4.506s15.737,2.374,18.878,15.054S187.03,371.772,187.03,371.772l30.623-8.22,8.307,26.331s-47.863,29.877-58.74,14.958-28.088-83.39-28.088-83.39l-4.85-63.467Z" transform="translate(735.616 106.606)" fill="#8bb7f9"/><path d="M286.4,338.681l-71.035-43.615-6.307,27.666,67.411,33.092a20.8,20.8,0,0,0,9.945,12.63c9.152,5.3,20.128,3.46,24.516-4.114s.526-18.012-8.626-23.314a20.8,20.8,0,0,0-15.9-2.345Z" transform="translate(502.99 146.139)" fill="#9f616a"/><path d="M305.469,249.582l-27.226,1.6S196.3,352.35,217.84,365.553L269.519,396.3l14.944-25.245-32.972-18.9,62.755-67.105-8.777-35.476Z" transform="translate(491.382 102.905)" fill="#8bb7f9"/><path d="M264.28,219.495s-16.833,37.788-39.6,43.2l2.788,14.729s13.477,35.907,0,51.8-53.907,11.784-53.907,11.784,12.148-181.607,86.726-140.721C307.9,226.4,290.98,251.758,290.98,251.758l-26.7-32.264Z" transform="translate(591.059 50.353)" fill="#090814"/><path d="M363.532,535.4H417.72a31.257,31.257,0,0,0,13.46-3.067l9.99-4.8a6,6,0,0,0-1-11.189l-20.609-5.7L384.3,492.106l-.026.133c-.659,3.339-1.681,8.384-1.811,8.69-3.616,4.142-7.33,6.051-11.04,5.675-6.471-.656-10.772-8.128-10.815-8.2l-.033-.058-.066.007a4.291,4.291,0,0,0-3.331,1.816c-1.476,2.226-.576,5.654-.428,6.171-1.768,1.73-2.561,11.389-2.622,12.169-2.556,2.709-3.771,5.314-3.61,7.742.141,2.122,1.318,4.094,3.5,5.859a15.133,15.133,0,0,0,9.512,3.293Z" transform="translate(469.461 370.411)" fill="#090814"/><g transform="translate(980.981 198.287)"><ellipse cx="6.898" cy="6.898" rx="6.898" ry="6.898" transform="translate(0 0)" fill="#3f3d56"/><ellipse cx="6.898" cy="6.898" rx="6.898" ry="6.898" transform="translate(23.83 0)" fill="#3f3d56"/><ellipse cx="6.898" cy="6.898" rx="6.898" ry="6.898" transform="translate(47.66 0)" fill="#3f3d56"/></g><path d="M612.853,739.5H200.489c-.6,0-1.082-.281-1.082-.627s.485-.627,1.082-.627H612.853c.6,0,1.082.281,1.082.627S613.45,739.5,612.853,739.5Z" transform="translate(781.574 -518.642)" fill="#cacaca"/></g></svg>